<?xml version="1.0" encoding="UTF-8" standalone="no"?>
<!DOCTYPE svg PUBLIC "-//W3C//DTD SVG 1.1//EN"
 "http://www.w3.org/Graphics/SVG/1.1/DTD/svg11.dtd">
<!-- Generated by graphviz version 2.43.0 (0)
 -->
<!-- Title: DOM Pages: 1 -->
<svg width="2056pt" height="427pt"
 viewBox="0.00 0.00 2056.00 427.00" xmlns="http://www.w3.org/2000/svg" xmlns:xlink="http://www.w3.org/1999/xlink">
<g id="graph0" class="graph" transform="scale(1 1) rotate(0) translate(4 423)">
<title>DOM</title>
<polygon fill="white" stroke="transparent" points="-4,4 -4,-423 2052,-423 2052,4 -4,4"/>
<!-- node0 -->
<g id="node1" class="node">
<title>node0</title>
<path fill="#ffe6e6" stroke="black" d="M1021,-419C1021,-419 991,-419 991,-419 985,-419 979,-413 979,-407 979,-407 979,-395 979,-395 979,-389 985,-383 991,-383 991,-383 1021,-383 1021,-383 1027,-383 1033,-389 1033,-395 1033,-395 1033,-407 1033,-407 1033,-413 1027,-419 1021,-419"/>
<text text-anchor="middle" x="1006" y="-397.3" font-family="Arial" font-size="14.00">html</text>
</g>
<!-- node1 -->
<g id="node2" class="node">
<title>node1</title>
<path fill="#e6f3ff" stroke="black" d="M690,-347C690,-347 660,-347 660,-347 654,-347 648,-341 648,-335 648,-335 648,-323 648,-323 648,-317 654,-311 660,-311 660,-311 690,-311 690,-311 696,-311 702,-317 702,-323 702,-323 702,-335 702,-335 702,-341 696,-347 690,-347"/>
<text text-anchor="middle" x="675" y="-325.3" font-family="Arial" font-size="14.00">head</text>
</g>
<!-- node0&#45;&gt;node1 -->
<g id="edge1" class="edge">
<title>node0&#45;&gt;node1</title>
<path fill="none" stroke="black" d="M978.91,-394.27C920,-381.81 780.09,-352.22 712.64,-337.96"/>
<polygon fill="black" stroke="black" points="712.97,-334.45 702.46,-335.81 711.52,-341.3 712.97,-334.45"/>
</g>
<!-- node20 -->
<g id="node21" class="node">
<title>node20</title>
<path fill="#e6ffe6" stroke="black" d="M1390,-347C1390,-347 1360,-347 1360,-347 1354,-347 1348,-341 1348,-335 1348,-335 1348,-323 1348,-323 1348,-317 1354,-311 1360,-311 1360,-311 1390,-311 1390,-311 1396,-311 1402,-317 1402,-323 1402,-323 1402,-335 1402,-335 1402,-341 1396,-347 1390,-347"/>
<text text-anchor="middle" x="1375" y="-325.3" font-family="Arial" font-size="14.00">body</text>
</g>
<!-- node0&#45;&gt;node20 -->
<g id="edge20" class="edge">
<title>node0&#45;&gt;node20</title>
<path fill="none" stroke="black" d="M1033.13,-394.85C1098.31,-382.49 1263.76,-351.1 1337.98,-337.02"/>
<polygon fill="black" stroke="black" points="1338.65,-340.46 1347.83,-335.15 1337.35,-333.58 1338.65,-340.46"/>
</g>
<!-- node2 -->
<g id="node3" class="node">
<title>node2</title>
<path fill="#ffffff" stroke="black" d="M42,-274C42,-274 12,-274 12,-274 6,-274 0,-268 0,-262 0,-262 0,-250 0,-250 0,-244 6,-238 12,-238 12,-238 42,-238 42,-238 48,-238 54,-244 54,-250 54,-250 54,-262 54,-262 54,-268 48,-274 42,-274"/>
<text text-anchor="middle" x="27" y="-252.3" font-family="Arial" font-size="14.00">meta</text>
</g>
<!-- node1&#45;&gt;node2 -->
<g id="edge2" class="edge">
<title>node1&#45;&gt;node2</title>
<path fill="none" stroke="black" d="M647.74,-327C546.84,-323.09 194.07,-307.57 63.81,-274.49"/>
<polygon fill="black" stroke="black" points="64.65,-271.09 54.09,-271.87 62.83,-277.85 64.65,-271.09"/>
</g>
<!-- node3 -->
<g id="node4" class="node">
<title>node3</title>
<path fill="#ffffff" stroke="black" d="M114,-274C114,-274 84,-274 84,-274 78,-274 72,-268 72,-262 72,-262 72,-250 72,-250 72,-244 78,-238 84,-238 84,-238 114,-238 114,-238 120,-238 126,-244 126,-250 126,-250 126,-262 126,-262 126,-268 120,-274 114,-274"/>
<text text-anchor="middle" x="99" y="-252.3" font-family="Arial" font-size="14.00">meta</text>
</g>
<!-- node1&#45;&gt;node3 -->
<g id="edge3" class="edge">
<title>node1&#45;&gt;node3</title>
<path fill="none" stroke="black" d="M647.73,-326.64C554.99,-321.81 251.6,-304.35 136.04,-274.57"/>
<polygon fill="black" stroke="black" points="136.67,-271.11 126.1,-271.83 134.81,-277.86 136.67,-271.11"/>
</g>
<!-- node4 -->
<g id="node5" class="node">
<title>node4</title>
<path fill="#ffffff" stroke="black" d="M186,-274C186,-274 156,-274 156,-274 150,-274 144,-268 144,-262 144,-262 144,-250 144,-250 144,-244 150,-238 156,-238 156,-238 186,-238 186,-238 192,-238 198,-244 198,-250 198,-250 198,-262 198,-262 198,-268 192,-274 186,-274"/>
<text text-anchor="middle" x="171" y="-252.3" font-family="Arial" font-size="14.00">meta</text>
</g>
<!-- node1&#45;&gt;node4 -->
<g id="edge4" class="edge">
<title>node1&#45;&gt;node4</title>
<path fill="none" stroke="black" d="M647.96,-328.21C576.5,-328.07 377.07,-323.3 207.93,-274.67"/>
<polygon fill="black" stroke="black" points="208.69,-271.25 198.11,-271.79 206.72,-277.96 208.69,-271.25"/>
</g>
<!-- node5 -->
<g id="node6" class="node">
<title>node5</title>
<path fill="#ffffff" stroke="black" d="M258,-274C258,-274 228,-274 228,-274 222,-274 216,-268 216,-262 216,-262 216,-250 216,-250 216,-244 222,-238 228,-238 228,-238 258,-238 258,-238 264,-238 270,-244 270,-250 270,-250 270,-262 270,-262 270,-268 264,-274 258,-274"/>
<text text-anchor="middle" x="243" y="-252.3" font-family="Arial" font-size="14.00">meta</text>
</g>
<!-- node1&#45;&gt;node5 -->
<g id="edge5" class="edge">
<title>node1&#45;&gt;node5</title>
<path fill="none" stroke="black" d="M647.93,-327.43C584.35,-325.46 420.82,-316.69 279.81,-274.68"/>
<polygon fill="black" stroke="black" points="280.71,-271.29 270.13,-271.73 278.68,-277.99 280.71,-271.29"/>
</g>
<!-- node6 -->
<g id="node7" class="node">
<title>node6</title>
<path fill="#ffffff" stroke="black" d="M330,-274C330,-274 300,-274 300,-274 294,-274 288,-268 288,-262 288,-262 288,-250 288,-250 288,-244 294,-238 300,-238 300,-238 330,-238 330,-238 336,-238 342,-244 342,-250 342,-250 342,-262 342,-262 342,-268 336,-274 330,-274"/>
<text text-anchor="middle" x="315" y="-252.3" font-family="Arial" font-size="14.00">meta</text>
</g>
<!-- node1&#45;&gt;node6 -->
<g id="edge6" class="edge">
<title>node1&#45;&gt;node6</title>
<path fill="none" stroke="black" d="M647.9,-326.33C593.03,-322.37 465.08,-310.19 352,-274.8"/>
<polygon fill="black" stroke="black" points="352.75,-271.36 342.16,-271.64 350.61,-278.02 352.75,-271.36"/>
</g>
<!-- node7 -->
<g id="node8" class="node">
<title>node7</title>
<path fill="#ffffff" stroke="black" d="M402,-274C402,-274 372,-274 372,-274 366,-274 360,-268 360,-262 360,-262 360,-250 360,-250 360,-244 366,-238 372,-238 372,-238 402,-238 402,-238 408,-238 414,-244 414,-250 414,-250 414,-262 414,-262 414,-268 408,-274 402,-274"/>
<text text-anchor="middle" x="387" y="-252.3" font-family="Arial" font-size="14.00">meta</text>
</g>
<!-- node1&#45;&gt;node7 -->
<g id="edge7" class="edge">
<title>node1&#45;&gt;node7</title>
<path fill="none" stroke="black" d="M647.9,-324.63C602.76,-318.51 509.43,-303.79 423.8,-274.82"/>
<polygon fill="black" stroke="black" points="424.8,-271.47 414.2,-271.51 422.51,-278.08 424.8,-271.47"/>
</g>
<!-- node8 -->
<g id="node9" class="node">
<title>node8</title>
<path fill="#ffffff" stroke="black" d="M474,-274C474,-274 444,-274 444,-274 438,-274 432,-268 432,-262 432,-262 432,-250 432,-250 432,-244 438,-238 444,-238 444,-238 474,-238 474,-238 480,-238 486,-244 486,-250 486,-250 486,-262 486,-262 486,-268 480,-274 474,-274"/>
<text text-anchor="middle" x="459" y="-252.3" font-family="Arial" font-size="14.00">title</text>
</g>
<!-- node1&#45;&gt;node8 -->
<g id="edge8" class="edge">
<title>node1&#45;&gt;node8</title>
<path fill="none" stroke="black" d="M647.97,-321.64C614.12,-313.33 554.36,-297.53 495.69,-274.95"/>
<polygon fill="black" stroke="black" points="496.88,-271.66 486.29,-271.27 494.32,-278.18 496.88,-271.66"/>
</g>
<!-- node9 -->
<g id="node10" class="node">
<title>node9</title>
<path fill="#ffffff" stroke="black" d="M546,-274C546,-274 516,-274 516,-274 510,-274 504,-268 504,-262 504,-262 504,-250 504,-250 504,-244 510,-238 516,-238 516,-238 546,-238 546,-238 552,-238 558,-244 558,-250 558,-250 558,-262 558,-262 558,-268 552,-274 546,-274"/>
<text text-anchor="middle" x="531" y="-252.3" font-family="Arial" font-size="14.00">link</text>
</g>
<!-- node1&#45;&gt;node9 -->
<g id="edge9" class="edge">
<title>node1&#45;&gt;node9</title>
<path fill="none" stroke="black" d="M647.9,-314.77C627.92,-305 599.86,-291.25 567.39,-275.18"/>
<polygon fill="black" stroke="black" points="568.63,-271.89 558.12,-270.58 565.52,-278.16 568.63,-271.89"/>
</g>
<!-- node10 -->
<g id="node11" class="node">
<title>node10</title>
<path fill="#ffffff" stroke="black" d="M618,-274C618,-274 588,-274 588,-274 582,-274 576,-268 576,-262 576,-262 576,-250 576,-250 576,-244 582,-238 588,-238 588,-238 618,-238 618,-238 624,-238 630,-244 630,-250 630,-250 630,-262 630,-262 630,-268 624,-274 618,-274"/>
<text text-anchor="middle" x="603" y="-252.3" font-family="Arial" font-size="14.00">link</text>
</g>
<!-- node1&#45;&gt;node10 -->
<g id="edge10" class="edge">
<title>node1&#45;&gt;node10</title>
<path fill="none" stroke="black" d="M657.57,-310.81C648.55,-301.92 637.39,-290.91 627.51,-281.17"/>
<polygon fill="black" stroke="black" points="629.85,-278.56 620.27,-274.03 624.93,-283.54 629.85,-278.56"/>
</g>
<!-- node11 -->
<g id="node12" class="node">
<title>node11</title>
<path fill="#ffffff" stroke="black" d="M690,-274C690,-274 660,-274 660,-274 654,-274 648,-268 648,-262 648,-262 648,-250 648,-250 648,-244 654,-238 660,-238 660,-238 690,-238 690,-238 696,-238 702,-244 702,-250 702,-250 702,-262 702,-262 702,-268 696,-274 690,-274"/>
<text text-anchor="middle" x="675" y="-252.3" font-family="Arial" font-size="14.00">link</text>
</g>
<!-- node1&#45;&gt;node11 -->
<g id="edge11" class="edge">
<title>node1&#45;&gt;node11</title>
<path fill="none" stroke="black" d="M675,-310.81C675,-302.79 675,-293.05 675,-284.07"/>
<polygon fill="black" stroke="black" points="678.5,-284.03 675,-274.03 671.5,-284.03 678.5,-284.03"/>
</g>
<!-- node12 -->
<g id="node13" class="node">
<title>node12</title>
<path fill="#ffffff" stroke="black" d="M762,-274C762,-274 732,-274 732,-274 726,-274 720,-268 720,-262 720,-262 720,-250 720,-250 720,-244 726,-238 732,-238 732,-238 762,-238 762,-238 768,-238 774,-244 774,-250 774,-250 774,-262 774,-262 774,-268 768,-274 762,-274"/>
<text text-anchor="middle" x="747" y="-252.3" font-family="Arial" font-size="14.00">link</text>
</g>
<!-- node1&#45;&gt;node12 -->
<g id="edge12" class="edge">
<title>node1&#45;&gt;node12</title>
<path fill="none" stroke="black" d="M692.43,-310.81C701.45,-301.92 712.61,-290.91 722.49,-281.17"/>
<polygon fill="black" stroke="black" points="725.07,-283.54 729.73,-274.03 720.15,-278.56 725.07,-283.54"/>
</g>
<!-- node13 -->
<g id="node14" class="node">
<title>node13</title>
<path fill="#ffffff" stroke="black" d="M834,-274C834,-274 804,-274 804,-274 798,-274 792,-268 792,-262 792,-262 792,-250 792,-250 792,-244 798,-238 804,-238 804,-238 834,-238 834,-238 840,-238 846,-244 846,-250 846,-250 846,-262 846,-262 846,-268 840,-274 834,-274"/>
<text text-anchor="middle" x="819" y="-252.3" font-family="Arial" font-size="14.00">link</text>
</g>
<!-- node1&#45;&gt;node13 -->
<g id="edge13" class="edge">
<title>node1&#45;&gt;node13</title>
<path fill="none" stroke="black" d="M702.1,-314.77C722.08,-305 750.14,-291.25 782.61,-275.18"/>
<polygon fill="black" stroke="black" points="784.48,-278.16 791.88,-270.58 781.37,-271.89 784.48,-278.16"/>
</g>
<!-- node14 -->
<g id="node15" class="node">
<title>node14</title>
<path fill="#ffffff" stroke="black" d="M906,-274C906,-274 876,-274 876,-274 870,-274 864,-268 864,-262 864,-262 864,-250 864,-250 864,-244 870,-238 876,-238 876,-238 906,-238 906,-238 912,-238 918,-244 918,-250 918,-250 918,-262 918,-262 918,-268 912,-274 906,-274"/>
<text text-anchor="middle" x="891" y="-252.3" font-family="Arial" font-size="14.00">link</text>
</g>
<!-- node1&#45;&gt;node14 -->
<g id="edge14" class="edge">
<title>node1&#45;&gt;node14</title>
<path fill="none" stroke="black" d="M702.03,-321.64C735.88,-313.33 795.64,-297.53 854.31,-274.95"/>
<polygon fill="black" stroke="black" points="855.68,-278.18 863.71,-271.27 853.12,-271.66 855.68,-278.18"/>
</g>
<!-- node15 -->
<g id="node16" class="node">
<title>node15</title>
<path fill="#ffffff" stroke="black" d="M978,-274C978,-274 948,-274 948,-274 942,-274 936,-268 936,-262 936,-262 936,-250 936,-250 936,-244 942,-238 948,-238 948,-238 978,-238 978,-238 984,-238 990,-244 990,-250 990,-250 990,-262 990,-262 990,-268 984,-274 978,-274"/>
<text text-anchor="middle" x="963" y="-252.3" font-family="Arial" font-size="14.00">link</text>
</g>
<!-- node1&#45;&gt;node15 -->
<g id="edge15" class="edge">
<title>node1&#45;&gt;node15</title>
<path fill="none" stroke="black" d="M702.1,-324.63C747.24,-318.51 840.57,-303.79 926.2,-274.82"/>
<polygon fill="black" stroke="black" points="927.49,-278.08 935.8,-271.51 925.2,-271.47 927.49,-278.08"/>
</g>
<!-- node16 -->
<g id="node17" class="node">
<title>node16</title>
<path fill="#ffffff" stroke="black" d="M1050,-274C1050,-274 1020,-274 1020,-274 1014,-274 1008,-268 1008,-262 1008,-262 1008,-250 1008,-250 1008,-244 1014,-238 1020,-238 1020,-238 1050,-238 1050,-238 1056,-238 1062,-244 1062,-250 1062,-250 1062,-262 1062,-262 1062,-268 1056,-274 1050,-274"/>
<text text-anchor="middle" x="1035" y="-252.3" font-family="Arial" font-size="14.00">link</text>
</g>
<!-- node1&#45;&gt;node16 -->
<g id="edge16" class="edge">
<title>node1&#45;&gt;node16</title>
<path fill="none" stroke="black" d="M702.1,-326.33C756.97,-322.37 884.92,-310.19 998,-274.8"/>
<polygon fill="black" stroke="black" points="999.39,-278.02 1007.84,-271.64 997.25,-271.36 999.39,-278.02"/>
</g>
<!-- node17 -->
<g id="node18" class="node">
<title>node17</title>
<path fill="#ffffff" stroke="black" d="M1122,-274C1122,-274 1092,-274 1092,-274 1086,-274 1080,-268 1080,-262 1080,-262 1080,-250 1080,-250 1080,-244 1086,-238 1092,-238 1092,-238 1122,-238 1122,-238 1128,-238 1134,-244 1134,-250 1134,-250 1134,-262 1134,-262 1134,-268 1128,-274 1122,-274"/>
<text text-anchor="middle" x="1107" y="-252.3" font-family="Arial" font-size="14.00">link</text>
</g>
<!-- node1&#45;&gt;node17 -->
<g id="edge17" class="edge">
<title>node1&#45;&gt;node17</title>
<path fill="none" stroke="black" d="M702.07,-327.43C765.65,-325.46 929.18,-316.69 1070.19,-274.68"/>
<polygon fill="black" stroke="black" points="1071.32,-277.99 1079.87,-271.73 1069.29,-271.29 1071.32,-277.99"/>
</g>
<!-- node18 -->
<g id="node19" class="node">
<title>node18</title>
<path fill="#ffffff" stroke="black" d="M1194,-274C1194,-274 1164,-274 1164,-274 1158,-274 1152,-268 1152,-262 1152,-262 1152,-250 1152,-250 1152,-244 1158,-238 1164,-238 1164,-238 1194,-238 1194,-238 1200,-238 1206,-244 1206,-250 1206,-250 1206,-262 1206,-262 1206,-268 1200,-274 1194,-274"/>
<text text-anchor="middle" x="1179" y="-252.3" font-family="Arial" font-size="14.00">link</text>
</g>
<!-- node1&#45;&gt;node18 -->
<g id="edge18" class="edge">
<title>node1&#45;&gt;node18</title>
<path fill="none" stroke="black" d="M702.04,-328.21C773.5,-328.07 972.93,-323.3 1142.07,-274.67"/>
<polygon fill="black" stroke="black" points="1143.28,-277.96 1151.89,-271.79 1141.31,-271.25 1143.28,-277.96"/>
</g>
<!-- node19 -->
<g id="node20" class="node">
<title>node19</title>
<path fill="#ffffff" stroke="black" d="M1276,-274C1276,-274 1236,-274 1236,-274 1230,-274 1224,-268 1224,-262 1224,-262 1224,-250 1224,-250 1224,-244 1230,-238 1236,-238 1236,-238 1276,-238 1276,-238 1282,-238 1288,-244 1288,-250 1288,-250 1288,-262 1288,-262 1288,-268 1282,-274 1276,-274"/>
<text text-anchor="middle" x="1256" y="-252.3" font-family="Arial" font-size="14.00">noscript</text>
</g>
<!-- node1&#45;&gt;node19 -->
<g id="edge19" class="edge">
<title>node1&#45;&gt;node19</title>
<path fill="none" stroke="black" d="M702.22,-328.33C780.98,-328.65 1015.66,-325.22 1213.95,-274.82"/>
<polygon fill="black" stroke="black" points="1214.86,-278.2 1223.66,-272.3 1213.1,-271.42 1214.86,-278.2"/>
</g>
<!-- node21 -->
<g id="node22" class="node">
<title>node21</title>
<path fill="#fff4e6" stroke="black" d="M1356,-275C1356,-275 1318,-275 1318,-275 1312,-275 1306,-269 1306,-263 1306,-263 1306,-249 1306,-249 1306,-243 1312,-237 1318,-237 1318,-237 1356,-237 1356,-237 1362,-237 1368,-243 1368,-249 1368,-249 1368,-263 1368,-263 1368,-269 1362,-275 1356,-275"/>
<text text-anchor="middle" x="1337" y="-259.8" font-family="Arial" font-size="14.00">header</text>
<text text-anchor="middle" x="1337" y="-244.8" font-family="Arial" font-size="14.00">.header</text>
</g>
<!-- node20&#45;&gt;node21 -->
<g id="edge21" class="edge">
<title>node20&#45;&gt;node21</title>
<path fill="none" stroke="black" d="M1365.8,-310.81C1361.5,-302.77 1356.27,-293 1351.46,-284.01"/>
<polygon fill="black" stroke="black" points="1354.45,-282.18 1346.64,-275.02 1348.28,-285.49 1354.45,-282.18"/>
</g>
<!-- node22 -->
<g id="node23" class="node">
<title>node22</title>
<path fill="#f0e6ff" stroke="black" d="M1428,-275C1428,-275 1398,-275 1398,-275 1392,-275 1386,-269 1386,-263 1386,-263 1386,-249 1386,-249 1386,-243 1392,-237 1398,-237 1398,-237 1428,-237 1428,-237 1434,-237 1440,-243 1440,-249 1440,-249 1440,-263 1440,-263 1440,-269 1434,-275 1428,-275"/>
<text text-anchor="middle" x="1413" y="-259.8" font-family="Arial" font-size="14.00">main</text>
<text text-anchor="middle" x="1413" y="-244.8" font-family="Arial" font-size="14.00">.main</text>
</g>
<!-- node20&#45;&gt;node22 -->
<g id="edge22" class="edge">
<title>node20&#45;&gt;node22</title>
<path fill="none" stroke="black" d="M1384.2,-310.81C1388.5,-302.77 1393.73,-293 1398.54,-284.01"/>
<polygon fill="black" stroke="black" points="1401.72,-285.49 1403.36,-275.02 1395.55,-282.18 1401.72,-285.49"/>
</g>
<!-- node38 -->
<g id="node39" class="node">
<title>node38</title>
<path fill="#ffe6f0" stroke="black" d="M1501.5,-275C1501.5,-275 1470.5,-275 1470.5,-275 1464.5,-275 1458.5,-269 1458.5,-263 1458.5,-263 1458.5,-249 1458.5,-249 1458.5,-243 1464.5,-237 1470.5,-237 1470.5,-237 1501.5,-237 1501.5,-237 1507.5,-237 1513.5,-243 1513.5,-249 1513.5,-249 1513.5,-263 1513.5,-263 1513.5,-269 1507.5,-275 1501.5,-275"/>
<text text-anchor="middle" x="1486" y="-259.8" font-family="Arial" font-size="14.00">footer</text>
<text text-anchor="middle" x="1486" y="-244.8" font-family="Arial" font-size="14.00">.footer</text>
</g>
<!-- node20&#45;&gt;node38 -->
<g id="edge38" class="edge">
<title>node20&#45;&gt;node38</title>
<path fill="none" stroke="black" d="M1401.59,-310.99C1416.09,-301.72 1434.25,-290.1 1450,-280.02"/>
<polygon fill="black" stroke="black" points="1451.93,-282.95 1458.47,-274.61 1448.16,-277.05 1451.93,-282.95"/>
</g>
<!-- node23 -->
<g id="node24" class="node">
<title>node23</title>
<path fill="#ffffcc" stroke="black" d="M1316.5,-201C1316.5,-201 1251.5,-201 1251.5,-201 1245.5,-201 1239.5,-195 1239.5,-189 1239.5,-189 1239.5,-175 1239.5,-175 1239.5,-169 1245.5,-163 1251.5,-163 1251.5,-163 1316.5,-163 1316.5,-163 1322.5,-163 1328.5,-169 1328.5,-175 1328.5,-175 1328.5,-189 1328.5,-189 1328.5,-195 1322.5,-201 1316.5,-201"/>
<text text-anchor="middle" x="1284" y="-185.8" font-family="Arial" font-size="14.00">section</text>
<text text-anchor="middle" x="1284" y="-170.8" font-family="Arial" font-size="14.00">.index&#45;block</text>
</g>
<!-- node22&#45;&gt;node23 -->
<g id="edge23" class="edge">
<title>node22&#45;&gt;node23</title>
<path fill="none" stroke="black" d="M1385.96,-239.91C1368.4,-230.11 1345.18,-217.15 1325.34,-206.07"/>
<polygon fill="black" stroke="black" points="1326.93,-202.95 1316.49,-201.13 1323.51,-209.06 1326.93,-202.95"/>
</g>
<!-- node32 -->
<g id="node33" class="node">
<title>node32</title>
<path fill="#ffffcc" stroke="black" d="M1575.5,-201C1575.5,-201 1510.5,-201 1510.5,-201 1504.5,-201 1498.5,-195 1498.5,-189 1498.5,-189 1498.5,-175 1498.5,-175 1498.5,-169 1504.5,-163 1510.5,-163 1510.5,-163 1575.5,-163 1575.5,-163 1581.5,-163 1587.5,-169 1587.5,-175 1587.5,-175 1587.5,-189 1587.5,-189 1587.5,-195 1581.5,-201 1575.5,-201"/>
<text text-anchor="middle" x="1543" y="-185.8" font-family="Arial" font-size="14.00">section</text>
<text text-anchor="middle" x="1543" y="-170.8" font-family="Arial" font-size="14.00">.index&#45;block</text>
</g>
<!-- node22&#45;&gt;node32 -->
<g id="edge32" class="edge">
<title>node22&#45;&gt;node32</title>
<path fill="none" stroke="black" d="M1440.25,-239.91C1457.94,-230.11 1481.34,-217.15 1501.34,-206.07"/>
<polygon fill="black" stroke="black" points="1503.21,-209.04 1510.26,-201.13 1499.82,-202.92 1503.21,-209.04"/>
</g>
<!-- node24 -->
<g id="node25" class="node">
<title>node24</title>
<path fill="#ffffff" stroke="black" d="M1065,-127C1065,-127 1013,-127 1013,-127 1007,-127 1001,-121 1001,-115 1001,-115 1001,-101 1001,-101 1001,-95 1007,-89 1013,-89 1013,-89 1065,-89 1065,-89 1071,-89 1077,-95 1077,-101 1077,-101 1077,-115 1077,-115 1077,-121 1071,-127 1065,-127"/>
<text text-anchor="middle" x="1039" y="-111.8" font-family="Arial" font-size="14.00">h2</text>
<text text-anchor="middle" x="1039" y="-96.8" font-family="Arial" font-size="14.00">.page&#45;title</text>
</g>
<!-- node23&#45;&gt;node24 -->
<g id="edge24" class="edge">
<title>node23&#45;&gt;node24</title>
<path fill="none" stroke="black" d="M1239.19,-170.14C1200.94,-160.56 1144.34,-145.67 1086.73,-127.09"/>
<polygon fill="black" stroke="black" points="1087.7,-123.73 1077.11,-123.96 1085.53,-130.38 1087.7,-123.73"/>
</g>
<!-- node25 -->
<g id="node26" class="node">
<title>node25</title>
<path fill="#f5f5f5" stroke="black" d="M1249,-127C1249,-127 1107,-127 1107,-127 1101,-127 1095,-121 1095,-115 1095,-115 1095,-101 1095,-101 1095,-95 1101,-89 1107,-89 1107,-89 1249,-89 1249,-89 1255,-89 1261,-95 1261,-101 1261,-101 1261,-115 1261,-115 1261,-121 1255,-127 1249,-127"/>
<text text-anchor="middle" x="1178" y="-111.8" font-family="Arial" font-size="14.00">div</text>
<text text-anchor="middle" x="1178" y="-96.8" font-family="Arial" font-size="14.00">.circular&#45;button&#45;container</text>
</g>
<!-- node23&#45;&gt;node25 -->
<g id="edge25" class="edge">
<title>node23&#45;&gt;node25</title>
<path fill="none" stroke="black" d="M1257.25,-162.83C1243.94,-153.79 1227.68,-142.75 1213.36,-133.02"/>
<polygon fill="black" stroke="black" points="1214.98,-129.89 1204.74,-127.16 1211.05,-135.68 1214.98,-129.89"/>
</g>
<!-- node28 -->
<g id="node29" class="node">
<title>node28</title>
<path fill="#f5f5f5" stroke="black" d="M1461,-127C1461,-127 1319,-127 1319,-127 1313,-127 1307,-121 1307,-115 1307,-115 1307,-101 1307,-101 1307,-95 1313,-89 1319,-89 1319,-89 1461,-89 1461,-89 1467,-89 1473,-95 1473,-101 1473,-101 1473,-115 1473,-115 1473,-121 1467,-127 1461,-127"/>
<text text-anchor="middle" x="1390" y="-111.8" font-family="Arial" font-size="14.00">div</text>
<text text-anchor="middle" x="1390" y="-96.8" font-family="Arial" font-size="14.00">.circular&#45;button&#45;container</text>
</g>
<!-- node23&#45;&gt;node28 -->
<g id="edge28" class="edge">
<title>node23&#45;&gt;node28</title>
<path fill="none" stroke="black" d="M1310.75,-162.83C1324.06,-153.79 1340.32,-142.75 1354.64,-133.02"/>
<polygon fill="black" stroke="black" points="1356.95,-135.68 1363.26,-127.16 1353.02,-129.89 1356.95,-135.68"/>
</g>
<!-- node26 -->
<g id="node27" class="node">
<title>node26</title>
<path fill="#ffffff" stroke="black" d="M1094,-53C1094,-53 1024,-53 1024,-53 1018,-53 1012,-47 1012,-41 1012,-41 1012,-12 1012,-12 1012,-6 1018,0 1024,0 1024,0 1094,0 1094,0 1100,0 1106,-6 1106,-12 1106,-12 1106,-41 1106,-41 1106,-47 1100,-53 1094,-53"/>
<text text-anchor="middle" x="1059" y="-37.8" font-family="Arial" font-size="14.00">a</text>
<text text-anchor="middle" x="1059" y="-22.8" font-family="Arial" font-size="14.00">#light&#45;button</text>
<text text-anchor="middle" x="1059" y="-7.8" font-family="Arial" font-size="14.00">.button&#45;circle</text>
</g>
<!-- node25&#45;&gt;node26 -->
<g id="edge26" class="edge">
<title>node25&#45;&gt;node26</title>
<path fill="none" stroke="black" d="M1151,-88.96C1137.57,-79.99 1120.97,-68.9 1105.57,-58.61"/>
<polygon fill="black" stroke="black" points="1107.43,-55.65 1097.17,-53 1103.54,-61.47 1107.43,-55.65"/>
</g>
<!-- node27 -->
<g id="node28" class="node">
<title>node27</title>
<path fill="#ffffff" stroke="black" d="M1206,-53C1206,-53 1136,-53 1136,-53 1130,-53 1124,-47 1124,-41 1124,-41 1124,-12 1124,-12 1124,-6 1130,0 1136,0 1136,0 1206,0 1206,0 1212,0 1218,-6 1218,-12 1218,-12 1218,-41 1218,-41 1218,-47 1212,-53 1206,-53"/>
<text text-anchor="middle" x="1171" y="-37.8" font-family="Arial" font-size="14.00">a</text>
<text text-anchor="middle" x="1171" y="-22.8" font-family="Arial" font-size="14.00">#dark&#45;button</text>
<text text-anchor="middle" x="1171" y="-7.8" font-family="Arial" font-size="14.00">.button&#45;circle</text>
</g>
<!-- node25&#45;&gt;node27 -->
<g id="edge27" class="edge">
<title>node25&#45;&gt;node27</title>
<path fill="none" stroke="black" d="M1176.41,-88.96C1175.74,-81.32 1174.93,-72.14 1174.15,-63.23"/>
<polygon fill="black" stroke="black" points="1177.61,-62.66 1173.25,-53 1170.64,-63.27 1177.61,-62.66"/>
</g>
<!-- node29 -->
<g id="node30" class="node">
<title>node29</title>
<path fill="#ffffff" stroke="black" d="M1355.5,-53C1355.5,-53 1248.5,-53 1248.5,-53 1242.5,-53 1236.5,-47 1236.5,-41 1236.5,-41 1236.5,-12 1236.5,-12 1236.5,-6 1242.5,0 1248.5,0 1248.5,0 1355.5,0 1355.5,0 1361.5,0 1367.5,-6 1367.5,-12 1367.5,-12 1367.5,-41 1367.5,-41 1367.5,-47 1361.5,-53 1355.5,-53"/>
<text text-anchor="middle" x="1302" y="-37.8" font-family="Arial" font-size="14.00">a</text>
<text text-anchor="middle" x="1302" y="-22.8" font-family="Arial" font-size="14.00">#normal&#45;button</text>
<text text-anchor="middle" x="1302" y="-7.8" font-family="Arial" font-size="14.00">.button&#45;circle&#45;small</text>
</g>
<!-- node28&#45;&gt;node29 -->
<g id="edge29" class="edge">
<title>node28&#45;&gt;node29</title>
<path fill="none" stroke="black" d="M1370.03,-88.96C1360.47,-80.32 1348.73,-69.72 1337.71,-59.76"/>
<polygon fill="black" stroke="black" points="1340,-57.11 1330.23,-53 1335.3,-62.3 1340,-57.11"/>
</g>
<!-- node30 -->
<g id="node31" class="node">
<title>node30</title>
<path fill="#ffffff" stroke="black" d="M1504.5,-53C1504.5,-53 1397.5,-53 1397.5,-53 1391.5,-53 1385.5,-47 1385.5,-41 1385.5,-41 1385.5,-12 1385.5,-12 1385.5,-6 1391.5,0 1397.5,0 1397.5,0 1504.5,0 1504.5,0 1510.5,0 1516.5,-6 1516.5,-12 1516.5,-12 1516.5,-41 1516.5,-41 1516.5,-47 1510.5,-53 1504.5,-53"/>
<text text-anchor="middle" x="1451" y="-37.8" font-family="Arial" font-size="14.00">a</text>
<text text-anchor="middle" x="1451" y="-22.8" font-family="Arial" font-size="14.00">#subdued&#45;button</text>
<text text-anchor="middle" x="1451" y="-7.8" font-family="Arial" font-size="14.00">.button&#45;circle&#45;small</text>
</g>
<!-- node28&#45;&gt;node30 -->
<g id="edge30" class="edge">
<title>node28&#45;&gt;node30</title>
<path fill="none" stroke="black" d="M1403.84,-88.96C1410.15,-80.74 1417.83,-70.73 1425.14,-61.2"/>
<polygon fill="black" stroke="black" points="1428.12,-63.07 1431.43,-53 1422.57,-58.81 1428.12,-63.07"/>
</g>
<!-- node31 -->
<g id="node32" class="node">
<title>node31</title>
<path fill="#ffffff" stroke="black" d="M1653.5,-53C1653.5,-53 1546.5,-53 1546.5,-53 1540.5,-53 1534.5,-47 1534.5,-41 1534.5,-41 1534.5,-12 1534.5,-12 1534.5,-6 1540.5,0 1546.5,0 1546.5,0 1653.5,0 1653.5,0 1659.5,0 1665.5,-6 1665.5,-12 1665.5,-12 1665.5,-41 1665.5,-41 1665.5,-47 1659.5,-53 1653.5,-53"/>
<text text-anchor="middle" x="1600" y="-37.8" font-family="Arial" font-size="14.00">a</text>
<text text-anchor="middle" x="1600" y="-22.8" font-family="Arial" font-size="14.00">#vibrant&#45;button</text>
<text text-anchor="middle" x="1600" y="-7.8" font-family="Arial" font-size="14.00">.button&#45;circle&#45;small</text>
</g>
<!-- node28&#45;&gt;node31 -->
<g id="edge31" class="edge">
<title>node28&#45;&gt;node31</title>
<path fill="none" stroke="black" d="M1437.65,-88.96C1463.31,-79.25 1495.56,-67.04 1524.54,-56.07"/>
<polygon fill="black" stroke="black" points="1526.12,-59.21 1534.23,-52.4 1523.64,-52.67 1526.12,-59.21"/>
</g>
<!-- node33 -->
<g id="node34" class="node">
<title>node33</title>
<path fill="#ffffff" stroke="black" d="M1569,-127C1569,-127 1517,-127 1517,-127 1511,-127 1505,-121 1505,-115 1505,-115 1505,-101 1505,-101 1505,-95 1511,-89 1517,-89 1517,-89 1569,-89 1569,-89 1575,-89 1581,-95 1581,-101 1581,-101 1581,-115 1581,-115 1581,-121 1575,-127 1569,-127"/>
<text text-anchor="middle" x="1543" y="-111.8" font-family="Arial" font-size="14.00">h2</text>
<text text-anchor="middle" x="1543" y="-96.8" font-family="Arial" font-size="14.00">.page&#45;title</text>
</g>
<!-- node32&#45;&gt;node33 -->
<g id="edge33" class="edge">
<title>node32&#45;&gt;node33</title>
<path fill="none" stroke="black" d="M1543,-162.83C1543,-155.13 1543,-145.97 1543,-137.42"/>
<polygon fill="black" stroke="black" points="1546.5,-137.41 1543,-127.41 1539.5,-137.41 1546.5,-137.41"/>
</g>
<!-- node34 -->
<g id="node35" class="node">
<title>node34</title>
<path fill="#f5f5f5" stroke="black" d="M1905,-127C1905,-127 1681,-127 1681,-127 1675,-127 1669,-121 1669,-115 1669,-115 1669,-101 1669,-101 1669,-95 1675,-89 1681,-89 1681,-89 1905,-89 1905,-89 1911,-89 1917,-95 1917,-101 1917,-101 1917,-115 1917,-115 1917,-121 1911,-127 1905,-127"/>
<text text-anchor="middle" x="1793" y="-111.8" font-family="Arial" font-size="14.00">div</text>
<text text-anchor="middle" x="1793" y="-96.8" font-family="Arial" font-size="14.00">.circular&#45;button&#45;container .path&#45;buttons</text>
</g>
<!-- node32&#45;&gt;node34 -->
<g id="edge34" class="edge">
<title>node32&#45;&gt;node34</title>
<path fill="none" stroke="black" d="M1587.69,-168.13C1624.57,-157.51 1677.61,-142.23 1720.54,-129.87"/>
<polygon fill="black" stroke="black" points="1721.74,-133.17 1730.38,-127.03 1719.8,-126.44 1721.74,-133.17"/>
</g>
<!-- node35 -->
<g id="node36" class="node">
<title>node35</title>
<path fill="#ffffff" stroke="black" d="M1766,-53C1766,-53 1696,-53 1696,-53 1690,-53 1684,-47 1684,-41 1684,-41 1684,-12 1684,-12 1684,-6 1690,0 1696,0 1696,0 1766,0 1766,0 1772,0 1778,-6 1778,-12 1778,-12 1778,-41 1778,-41 1778,-47 1772,-53 1766,-53"/>
<text text-anchor="middle" x="1731" y="-37.8" font-family="Arial" font-size="14.00">a</text>
<text text-anchor="middle" x="1731" y="-22.8" font-family="Arial" font-size="14.00">#start&#45;button</text>
<text text-anchor="middle" x="1731" y="-7.8" font-family="Arial" font-size="14.00">.button&#45;circle</text>
</g>
<!-- node34&#45;&gt;node35 -->
<g id="edge35" class="edge">
<title>node34&#45;&gt;node35</title>
<path fill="none" stroke="black" d="M1778.93,-88.96C1772.46,-80.66 1764.56,-70.53 1757.06,-60.91"/>
<polygon fill="black" stroke="black" points="1759.8,-58.74 1750.89,-53 1754.28,-63.04 1759.8,-58.74"/>
</g>
<!-- node36 -->
<g id="node37" class="node">
<title>node36</title>
<path fill="#ffffff" stroke="black" d="M1901.5,-53C1901.5,-53 1808.5,-53 1808.5,-53 1802.5,-53 1796.5,-47 1796.5,-41 1796.5,-41 1796.5,-12 1796.5,-12 1796.5,-6 1802.5,0 1808.5,0 1808.5,0 1901.5,0 1901.5,0 1907.5,0 1913.5,-6 1913.5,-12 1913.5,-12 1913.5,-41 1913.5,-41 1913.5,-47 1907.5,-53 1901.5,-53"/>
<text text-anchor="middle" x="1855" y="-37.8" font-family="Arial" font-size="14.00">a</text>
<text text-anchor="middle" x="1855" y="-22.8" font-family="Arial" font-size="14.00">#students&#45;button</text>
<text text-anchor="middle" x="1855" y="-7.8" font-family="Arial" font-size="14.00">.button&#45;circle</text>
</g>
<!-- node34&#45;&gt;node36 -->
<g id="edge36" class="edge">
<title>node34&#45;&gt;node36</title>
<path fill="none" stroke="black" d="M1807.07,-88.96C1813.54,-80.66 1821.44,-70.53 1828.94,-60.91"/>
<polygon fill="black" stroke="black" points="1831.72,-63.04 1835.11,-53 1826.2,-58.74 1831.72,-63.04"/>
</g>
<!-- node37 -->
<g id="node38" class="node">
<title>node37</title>
<path fill="#ffffff" stroke="black" d="M2036,-53C2036,-53 1944,-53 1944,-53 1938,-53 1932,-47 1932,-41 1932,-41 1932,-12 1932,-12 1932,-6 1938,0 1944,0 1944,0 2036,0 2036,0 2042,0 2048,-6 2048,-12 2048,-12 2048,-41 2048,-41 2048,-47 2042,-53 2036,-53"/>
<text text-anchor="middle" x="1990" y="-37.8" font-family="Arial" font-size="14.00">a</text>
<text text-anchor="middle" x="1990" y="-22.8" font-family="Arial" font-size="14.00">#mentors&#45;button</text>
<text text-anchor="middle" x="1990" y="-7.8" font-family="Arial" font-size="14.00">.button&#45;circle</text>
</g>
<!-- node34&#45;&gt;node37 -->
<g id="edge37" class="edge">
<title>node34&#45;&gt;node37</title>
<path fill="none" stroke="black" d="M1837.7,-88.96C1862.69,-78.88 1894.34,-66.1 1922.31,-54.82"/>
<polygon fill="black" stroke="black" points="1923.67,-58.04 1931.64,-51.05 1921.05,-51.55 1923.67,-58.04"/>
</g>
</g>
</svg>
